<svg width="1330" height="180" viewBox="0 0 1330 180" fill="none" xmlns="http://www.w3.org/2000/svg">
<path d="M1244.53 160.109V45.9394H1256.35V81.8701L1253.55 81.559C1254.07 72.6411 1255.93 65.3824 1259.15 59.7828C1262.46 54.0796 1266.77 49.8799 1272.06 47.1838C1277.35 44.4877 1283.1 43.1396 1289.32 43.1396C1295.34 43.1396 1300.78 44.2803 1305.65 46.5616C1310.63 48.8429 1314.88 51.9538 1318.41 55.8942C1321.93 59.8347 1324.63 64.3973 1326.5 69.5821C1328.36 74.7669 1329.3 80.2628 1329.3 86.0698V88.8696C1329.3 94.6765 1328.31 100.172 1326.34 105.357C1324.37 110.542 1321.57 115.105 1317.94 119.045C1314.42 122.986 1310.16 126.096 1305.19 128.378C1300.31 130.659 1294.92 131.8 1289.01 131.8C1283.1 131.8 1277.45 130.503 1272.06 127.911C1266.66 125.319 1262.21 121.119 1258.68 115.312C1255.15 109.505 1253.13 101.883 1252.61 92.4471L1259.46 104.891V160.109H1244.53ZM1286.68 118.734C1292.28 118.734 1297.15 117.438 1301.3 114.845C1305.45 112.149 1308.66 108.468 1310.94 103.802C1313.22 99.0318 1314.36 93.5877 1314.36 87.4697C1314.36 81.2479 1313.22 75.8039 1310.94 71.1376C1308.66 66.4712 1305.45 62.8419 1301.3 60.2495C1297.15 57.5534 1292.28 56.2053 1286.68 56.2053C1281.7 56.2053 1277.09 57.346 1272.83 59.6273C1268.58 61.8049 1265.16 65.0195 1262.57 69.271C1260.08 73.4189 1258.84 78.4481 1258.84 84.3588V91.5138C1258.84 97.2171 1260.13 102.091 1262.72 106.135C1265.32 110.179 1268.74 113.29 1272.99 115.468C1277.24 117.645 1281.8 118.734 1286.68 118.734Z" fill="#081E24"/>
<path d="M1184.96 131.489C1175.11 131.489 1167.54 128.274 1162.25 121.845C1156.97 115.416 1154.32 106.135 1154.32 94.0025V45.7839H1169.25V96.9579C1169.25 103.491 1171.02 108.624 1174.54 112.357C1178.07 115.986 1182.84 117.801 1188.85 117.801C1195.07 117.801 1200.15 115.831 1204.09 111.89C1208.04 107.846 1210.01 102.35 1210.01 95.4024V45.7839H1224.94V129H1213.12V93.3804H1214.98C1214.98 101.572 1213.89 108.52 1211.72 114.223C1209.54 119.823 1206.27 124.126 1201.92 127.133C1197.67 130.037 1192.22 131.489 1185.59 131.489H1184.96Z" fill="#081E24"/>
<path d="M1098.67 131.8C1091.41 131.8 1085.03 130.555 1079.54 128.067C1074.04 125.578 1069.38 122.311 1065.54 118.267C1061.81 114.12 1058.95 109.505 1056.98 104.424C1055.12 99.3428 1054.18 94.1581 1054.18 88.8696V86.0698C1054.18 80.7813 1055.17 75.5965 1057.14 70.5154C1059.11 65.3306 1062.01 60.7161 1065.85 56.672C1069.69 52.5241 1074.35 49.2577 1079.85 46.8727C1085.35 44.384 1091.62 43.1396 1098.67 43.1396C1105.72 43.1396 1112 44.384 1117.49 46.8727C1122.99 49.2577 1127.65 52.5241 1131.49 56.672C1135.33 60.7161 1138.23 65.3306 1140.2 70.5154C1142.17 75.5965 1143.16 80.7813 1143.16 86.0698V88.8696C1143.16 94.1581 1142.17 99.3428 1140.2 104.424C1138.33 109.505 1135.48 114.12 1131.65 118.267C1127.91 122.311 1123.3 125.578 1117.8 128.067C1112.31 130.555 1105.93 131.8 1098.67 131.8ZM1098.67 118.423C1104.89 118.423 1110.18 117.075 1114.54 114.379C1118.99 111.579 1122.36 107.846 1124.65 103.18C1127.03 98.5133 1128.22 93.2766 1128.22 87.4697C1128.22 81.559 1127.03 76.2705 1124.65 71.6042C1122.26 66.9379 1118.84 63.2567 1114.38 60.5606C1110.02 57.8645 1104.79 56.5164 1098.67 56.5164C1092.66 56.5164 1087.42 57.8645 1082.96 60.5606C1078.5 63.2567 1075.08 66.9379 1072.69 71.6042C1070.31 76.2705 1069.12 81.559 1069.12 87.4697C1069.12 93.2766 1070.26 98.5133 1072.54 103.18C1074.92 107.846 1078.29 111.579 1082.65 114.379C1087.11 117.075 1092.45 118.423 1098.67 118.423Z" fill="#081E24"/>
<path d="M1006.85 129V45.9396H1018.67V80.1593H1018.05C1018.05 68.0268 1020.7 59.1608 1025.98 53.5613C1031.38 47.858 1039.41 45.0063 1050.09 45.0063H1052.89V58.3831H1047.61C1039.31 58.3831 1032.93 60.6126 1028.47 65.0715C1024.01 69.4267 1021.79 75.7522 1021.79 84.0479V129H1006.85Z" fill="#081E24"/>
<path d="M939.805 131.8C930.991 131.8 923.006 130.348 915.851 127.445C908.696 124.541 902.526 120.445 897.341 115.157C892.26 109.868 888.32 103.646 885.52 96.4913C882.72 89.2326 881.32 81.3517 881.32 72.8486V69.4267C881.32 62.1679 882.565 55.1685 885.053 48.4282C887.646 41.5843 891.327 35.4662 896.097 30.074C900.971 24.5782 906.881 20.2748 913.829 17.1639C920.777 13.9493 928.606 12.342 937.316 12.342C946.752 12.342 955.152 14.1567 962.514 17.7861C969.877 21.3117 975.787 26.2891 980.246 32.7183C984.705 39.0437 987.298 46.4062 988.023 54.8055H972.469C971.743 48.4801 969.669 43.2434 966.247 39.0956C962.825 34.8441 958.574 31.6813 953.493 29.6074C948.515 27.4298 943.123 26.341 937.316 26.341C931.405 26.341 925.961 27.4298 920.984 29.6074C916.007 31.6813 911.703 34.6885 908.074 38.629C904.548 42.5694 901.8 47.2876 899.83 52.7835C897.86 58.2793 896.875 64.4493 896.875 71.2932C896.875 79.0704 897.912 85.9143 899.986 91.825C902.163 97.632 905.17 102.506 909.007 106.446C912.844 110.283 917.355 113.186 922.539 115.157C927.828 117.127 933.583 118.112 939.805 118.112C948.619 118.112 956.344 116.349 962.981 112.823C969.721 109.194 974.802 104.528 978.224 98.8245L972.625 117.334V83.5811H986.935V110.646C981.854 117.282 975.321 122.467 967.336 126.2C959.352 129.933 950.174 131.8 939.805 131.8ZM935.761 86.692V73.9374H996.578V86.692H935.761Z" fill="#081E24"/>
<path d="M836.319 129.933C830.097 129.933 824.705 129.052 820.142 127.289C815.683 125.526 812.209 122.519 809.721 118.267C807.336 113.912 806.143 108.053 806.143 100.691V20.7415H820.453V102.558C820.453 107.016 821.646 110.49 824.031 112.979C826.519 115.364 829.993 116.557 834.452 116.557H849.073V129.933H836.319ZM791.833 57.1387V45.9396H849.073V57.1387H791.833Z" fill="#081E24"/>
<path d="M754.588 131.8C747.433 131.8 741.212 130.555 735.923 128.067C730.738 125.578 726.435 122.26 723.013 118.112C719.591 113.86 716.999 109.194 715.236 104.113C713.577 99.0318 712.747 93.9507 712.747 88.8696V86.0698C712.747 80.7813 713.577 75.5965 715.236 70.5154C716.999 65.4343 719.591 60.8717 723.013 56.8275C726.539 52.6797 730.894 49.3614 736.079 46.8727C741.263 44.384 747.33 43.1396 754.277 43.1396C761.225 43.1396 767.447 44.4358 772.943 47.0283C778.542 49.6206 783.001 53.3018 786.319 58.0719C789.741 62.7382 791.66 68.2859 792.074 74.7151H777.764C777.039 69.5303 774.654 65.2269 770.609 61.8049C766.565 58.2793 761.121 56.5164 754.277 56.5164C748.367 56.5164 743.441 57.8645 739.501 60.5606C735.56 63.2567 732.605 66.9379 730.635 71.6042C728.664 76.2705 727.679 81.559 727.679 87.4697C727.679 93.1729 728.664 98.4096 730.635 103.18C732.605 107.846 735.56 111.579 739.501 114.379C743.545 117.075 748.574 118.423 754.588 118.423C759.255 118.423 763.299 117.593 766.721 115.934C770.143 114.275 772.891 112.046 774.965 109.246C777.039 106.446 778.283 103.283 778.698 99.7576H793.008C792.697 106.29 790.778 111.942 787.253 116.712C783.831 121.482 779.268 125.215 773.565 127.911C767.965 130.503 761.64 131.8 754.588 131.8Z" fill="#081E24"/>
<path d="M689.074 129V104.113H686.586V75.3374C686.586 69.6341 685.082 65.3308 682.075 62.4273C679.171 59.5238 674.868 58.072 669.165 58.072C665.95 58.072 662.632 58.1239 659.21 58.2276C655.788 58.3313 652.522 58.435 649.411 58.5387C646.3 58.6424 643.604 58.7979 641.322 59.0053V45.9396C643.604 45.7322 645.989 45.5767 648.477 45.473C651.07 45.2656 653.714 45.1619 656.41 45.1619C659.106 45.0582 661.699 45.0063 664.187 45.0063C672.69 45.0063 679.638 46.0433 685.03 48.1172C690.422 50.0874 694.415 53.3539 697.007 57.9165C699.6 62.4791 700.896 68.649 700.896 76.4262V129H689.074ZM661.854 131.178C655.632 131.178 650.24 130.141 645.678 128.067C641.219 125.889 637.745 122.778 635.256 118.734C632.871 114.69 631.679 109.816 631.679 104.113C631.679 98.2024 632.975 93.2768 635.567 89.3364C638.263 85.3959 642.152 82.4406 647.233 80.4704C652.314 78.3964 658.432 77.3595 665.587 77.3595H688.141V88.5586H664.965C658.951 88.5586 654.336 90.0104 651.122 92.9139C647.907 95.8173 646.3 99.5504 646.3 104.113C646.3 108.676 647.907 112.357 651.122 115.157C654.336 117.956 658.951 119.356 664.965 119.356C668.491 119.356 671.861 118.734 675.075 117.49C678.29 116.142 680.934 113.964 683.008 110.957C685.186 107.846 686.378 103.595 686.586 98.2024L690.63 104.113C690.111 110.024 688.66 115.001 686.275 119.045C683.993 122.986 680.779 125.993 676.631 128.067C672.587 130.141 667.661 131.178 661.854 131.178Z" fill="#081E24"/>
<path d="M584.673 129V45.9396H596.494V80.1593H595.872C595.872 68.0268 598.516 59.1608 603.805 53.5613C609.197 47.858 617.233 45.0063 627.914 45.0063H630.714V58.3831H625.425C617.13 58.3831 610.752 60.6126 606.293 65.0715C601.835 69.4267 599.605 75.7522 599.605 84.0479V129H584.673Z" fill="#081E24"/>
<path d="M560.131 129.933C553.909 129.933 548.517 129.052 543.954 127.289C539.496 125.526 536.022 122.519 533.533 118.267C531.148 113.912 529.956 108.053 529.956 100.691V20.7415H544.266V102.558C544.266 107.016 545.458 110.49 547.843 112.979C550.332 115.364 553.806 116.557 558.265 116.557H572.886V129.933H560.131ZM515.646 57.1387V45.9396H572.886V57.1387H515.646Z" fill="#081E24"/>
<path d="M503.236 129.933C497.014 129.933 491.622 129.052 487.059 127.289C482.6 125.526 479.126 122.519 476.638 118.267C474.253 113.912 473.06 108.053 473.06 100.691V20.7415H487.37V102.558C487.37 107.016 488.563 110.49 490.948 112.979C493.436 115.364 496.91 116.557 501.369 116.557H515.99V129.933H503.236ZM458.75 57.1387V45.9396H515.99V57.1387H458.75Z" fill="#081E24"/>
<path d="M353.603 129L394.511 15.4529H420.331L462.483 129H446.773L408.665 25.4077L416.131 29.1407H397.777L405.71 25.4077L368.846 129H353.603ZM378.023 95.0914L383.156 81.4035H432.152L437.285 95.0914H378.023Z" fill="#081E24"/>
<path fill-rule="evenodd" clip-rule="evenodd" d="M300.397 31.2312C308.86 20.477 313.091 15.0998 312.933 10.9104C312.796 7.27465 310.933 3.92241 307.917 1.88646C304.443 -0.459554 297.642 0.295166 284.041 1.80461L45.1248 28.3192C17.9567 31.3343 4.37265 32.8418 1.80754 36.4784C-0.393585 39.5989 -0.600662 43.7081 1.27559 47.0341C3.46212 50.9102 16.8258 53.7757 43.5531 59.5068L174.844 87.6592C182.507 89.3023 186.338 90.1238 188.881 92.0481C192.263 94.6069 194.342 98.5279 194.564 102.763C194.731 105.948 193.262 109.58 190.324 116.846C179.221 144.308 173.669 158.039 175.057 162.072C176.903 167.435 182.408 170.627 187.979 169.565C192.17 168.766 201.329 157.127 219.647 133.848L300.397 31.2312Z" fill="#081E24"/>
<path fill-rule="evenodd" clip-rule="evenodd" d="M104.8 94.5801C97.5486 92.992 93.9231 92.1979 91.7465 93.3021C89.9351 94.221 88.6254 95.897 88.1716 97.8768C87.6264 100.256 89.2733 103.582 92.5673 110.234L116.361 158.285C122.579 170.843 125.688 177.122 129.739 178.862C133.106 180.307 136.949 180.133 140.17 178.388C144.047 176.288 146.574 169.753 151.628 156.683L164.96 122.205C166.753 117.567 167.649 115.249 167.33 113.227C167.061 111.527 166.223 109.969 164.954 108.807C163.445 107.425 161.016 106.893 156.16 105.829L104.8 94.5801Z" fill="#F01159"/>
</svg>
